<svg width="26" height="29" viewBox="0 0 26 29" fill="none" xmlns="http://www.w3.org/2000/svg">
<path d="M13 7.14288C12.6602 7.14288 12.4003 7.43273 12.4003 7.81175V12.382C11.5808 12.6718 11.0012 13.519 11.0012 14.4998C11.0012 15.726 11.9006 16.7291 12.9999 16.7291C13.8993 16.7291 14.6588 16.0826 14.8987 15.1686H18.9961C19.3359 15.1686 19.5958 14.8788 19.5958 14.4998C19.5958 14.1207 19.3359 13.8309 18.9961 13.8309L14.8987 13.8311C14.6987 13.1399 14.2191 12.5826 13.5994 12.3819V7.81169C13.5994 7.43269 13.3397 7.14282 12.9999 7.14282L13 7.14288ZM13.7994 14.4999C13.7994 14.9905 13.4395 15.3916 13 15.3916C12.5602 15.3916 12.2006 14.9902 12.2006 14.4999C12.2006 14.0094 12.5604 13.6083 13 13.6083C13.4395 13.6081 13.7994 14.0094 13.7994 14.4999Z" fill="white"/>
<path d="M13.0001 1.56946C6.60418 1.56946 1.40723 7.36606 1.40723 14.4999C1.40723 21.6338 6.60418 27.4304 13.0001 27.4304C16.0981 27.4304 19.0161 26.0928 21.1748 23.6627L21.1949 23.6404V25.29C21.1949 25.669 21.4547 25.9589 21.7946 25.9589C22.1344 25.9589 22.3942 25.669 22.3942 25.29L22.394 22.102C22.394 21.723 22.1342 21.4331 21.7944 21.4331L18.9161 21.4333C18.5763 21.4333 18.3164 21.7232 18.3164 22.1022C18.3164 22.4812 18.5763 22.7711 18.9161 22.7711H20.2552C18.3164 24.911 15.7381 26.0928 12.9996 26.0928C7.26335 26.0928 2.6062 20.8982 2.6062 14.5001C2.6062 8.10201 7.2634 2.9075 12.9996 2.9075C18.7359 2.9075 23.393 8.10207 23.393 14.5001C23.393 14.8791 23.6529 15.169 23.9927 15.169C24.3325 15.169 24.5924 14.8792 24.5924 14.5001C24.5924 7.36625 19.3756 1.56965 12.9995 1.56965L13.0001 1.56946Z" fill="white"/>
<path d="M24.2131 17.9329C24.2131 18.3391 23.9178 18.6686 23.5536 18.6686C23.1892 18.6686 22.894 18.3391 22.894 17.9329C22.894 17.5267 23.1892 17.1973 23.5536 17.1973C23.9178 17.1973 24.2131 17.5267 24.2131 17.9329Z" fill="white"/>
</svg>
