<svg width="38" height="32" viewBox="0 0 38 32" fill="none" xmlns="http://www.w3.org/2000/svg">
<path d="M18.5182 8.04182C18.5182 4.13432 14.7562 0.971191 10.1218 0.971191C5.48163 0.971191 1.71948 4.13919 1.71948 8.04182C1.71948 11.9493 10.1158 20.5318 10.1158 20.5318C10.1158 20.5318 18.5182 11.9493 18.5182 8.04182ZM5.22112 8.04182C5.22112 5.76132 7.41377 3.91488 10.1219 3.91488C12.83 3.91488 15.0226 5.76132 15.0226 8.04182C15.0226 10.3223 12.83 12.1688 10.1219 12.1688C7.41377 12.1688 5.22112 10.3223 5.22112 8.04182Z" fill="white"/>
<path d="M31.4634 17.708C28.4892 17.708 26.0811 19.7356 26.0811 22.2405C26.0813 24.7451 31.4634 30.5511 31.4634 30.5511C31.4634 30.5511 36.8457 24.745 36.8457 22.2399C36.8457 19.7353 34.438 17.7076 31.4634 17.7076V17.708ZM31.4634 24.888C29.7297 24.888 28.3248 23.7049 28.3248 22.245C28.3248 20.785 29.7297 19.6019 31.4634 19.6019C33.1971 19.6019 34.602 20.785 34.602 22.245C34.602 23.7 33.1971 24.888 31.4634 24.888Z" fill="white"/>
<path d="M29.1976 30.0743H10.5012C9.71926 30.0743 9.08491 29.5398 9.08491 28.8816C9.08491 28.2232 9.71954 27.689 10.5012 27.689H16.7332C18.1382 27.689 19.2828 26.7254 19.2828 25.542C19.2828 24.3589 18.1385 23.395 16.7332 23.395L3.70264 23.3948C2.92074 23.3948 2.2864 22.8603 2.2864 22.2021C2.2864 21.5437 2.92103 21.0095 3.70264 21.0095H7.66844C7.9801 21.0095 8.23494 20.7949 8.23494 20.5325C8.23494 20.27 7.9801 20.0554 7.66844 20.0554L3.70264 20.0552C2.29768 20.0552 1.15308 21.0188 1.15308 22.2022C1.15308 23.3853 2.29738 24.3492 3.70264 24.3492H16.7332C17.5151 24.3492 18.1495 24.8836 18.1495 25.5418C18.1495 26.2002 17.5148 26.7344 16.7332 26.7344H10.5012C9.09619 26.7344 7.95159 27.6981 7.95159 28.8814C7.95159 30.0646 9.09589 31.0284 10.5012 31.0284H29.1976C29.5093 31.0284 29.7641 30.8138 29.7641 30.5514C29.7641 30.2889 29.509 30.0743 29.1976 30.0743Z" fill="white"/>
</svg>
