<svg width="35" height="35" viewBox="0 0 35 35" fill="none" xmlns="http://www.w3.org/2000/svg">
<g clip-path="url(#clip0_323_295)">
<path d="M15 3.00708C8.35786 3.00708 3.00708 8.35763 3.00708 15C3.00708 21.6422 8.35763 26.9924 14.9995 26.9924C21.6416 26.9924 26.9918 21.6419 26.9918 15C26.9921 8.35786 21.6415 3.00708 14.9995 3.00708H15ZM19.2435 15.4612L14.5389 19.4279C13.9854 19.8891 13.155 19.5202 13.155 18.9667V11.0331C13.155 10.4797 13.9852 10.1107 14.5389 10.5719L19.2435 14.5387C19.5202 14.7231 19.5202 15.0921 19.3358 15.3688C19.3358 15.3688 19.3358 15.4611 19.2435 15.4611V15.4612Z" fill="white"/>
</g>
<defs>
<clipPath id="clip0_323_295">
<rect width="35" height="35" fill="white"/>
</clipPath>
</defs>
</svg>
